<svg width="1611" height="230" viewBox="0 0 1611 230" fill="none" xmlns="http://www.w3.org/2000/svg">
<rect width="1611" height="230" fill="#70d9e2"/>
<path d="M1471.01 119.573C1584.04 121.23 1557.73 131.51 1609 110V230H11V136.137C48.5775 111.636 147.481 62.6345 242.477 62.6345C361.222 62.6345 352.203 119.573 424.853 119.573C497.503 119.573 563.639 64.3599 650.318 64.3599C739.502 64.3599 750.524 96.1076 883.799 96.1076C1017.07 96.1076 1069.18 54.3525 1182.92 54.3525C1303.16 54.3525 1329.72 117.503 1471.01 119.573Z" fill="#00BBA6"/>
<path d="M225.797 94.6382C118.555 96.6686 48.6453 26.3673 0 0V230H1611V114.942C1575.35 84.9091 1481.51 24.8423 1391.38 24.8423C1278.72 24.8423 1287.28 94.6382 1218.35 94.6382C1149.42 94.6382 1086.68 26.9573 1004.44 26.9573C919.824 26.9573 909.367 65.8738 782.92 65.8738C656.474 65.8738 607.037 14.6902 499.13 14.6902C385.043 14.6902 359.849 92.1002 225.797 94.6382Z" fill="#66DDAA"/>
</svg>
