<svg width="1440" height="510" viewBox="0 0 1440 510" fill="none" xmlns="http://www.w3.org/2000/svg">
<rect width="1440" height="510" fill="white"/>
<g clip-path="url(#clip0_0_1)">
<rect width="1440" height="312" transform="translate(0 198)" fill="#66DDAA"/>
<path d="M1288.01 497.82C1401.04 498.978 1466.21 460.034 1517.48 445L1526 575H-172V509.397C-134.423 492.273 -35.5187 458.024 59.4771 458.024C178.222 458.024 169.203 497.82 241.853 497.82C314.503 497.82 380.639 459.23 467.318 459.23C556.502 459.23 567.524 481.419 700.799 481.419C834.074 481.419 886.181 452.236 999.916 452.236C1120.16 452.236 1146.72 496.373 1288.01 497.82Z" fill="#71D9E2"/>
</g>
<path d="M278.578 103.5C122.303 103.5 25.9704 165.833 0 195.5V329H1440V0C1251.11 0 1171.43 195.5 896.886 195.5C641.862 195.5 493.778 103.5 278.578 103.5Z" fill="#66DDAA"/>
<defs>
<clipPath id="clip0_0_1">
<rect width="1440" height="312" fill="white" transform="translate(0 198)"/>
</clipPath>
</defs>
</svg>
